<svg width="474" height="72" viewBox="0 0 474 72" fill="none" xmlns="http://www.w3.org/2000/svg">
<path d="M4.28363 54V34.3882C4.28363 33.6141 3.87075 33.2528 3.14821 33.2528H1.08381V27.6789H7.12217C9.44462 27.6789 10.58 28.7627 10.58 30.6207V31.3948C10.58 31.9626 10.4768 32.5303 10.4768 32.5303H10.58C11.7155 30.311 14.554 27.0596 19.8698 27.0596C25.7018 27.0596 29.0564 30.1046 29.0564 37.0719V47.3423C29.0564 48.0649 29.4693 48.4777 30.1918 48.4777H32.2562V54H26.0114C23.5341 54 22.5019 52.9678 22.5019 50.4905V38.4138C22.5019 35.214 21.6762 33.0464 18.3731 33.0464C14.8637 33.0464 12.2316 35.2656 11.3026 38.4138C10.9413 39.4976 10.7865 40.6846 10.7865 41.9233V54H4.28363ZM92.081 54V34.3882C92.081 33.6141 91.6681 33.2528 90.9456 33.2528H88.8812V27.6789H94.8679C97.1904 27.6789 98.3774 28.6595 98.3774 30.8787V32.427C98.3774 33.4076 98.2742 34.0786 98.2742 34.0786H98.3774C99.5644 30.311 102.713 27.3177 106.738 27.3177C107.306 27.3177 107.925 27.4209 107.925 27.4209V33.8721C107.925 33.8721 107.254 33.7689 106.325 33.7689C103.538 33.7689 100.339 35.3688 99.1516 39.2912C98.7903 40.5814 98.5839 42.0265 98.5839 43.5748V54H92.081ZM109.207 46.4133C109.207 38.1557 120.561 37.4848 124.845 37.4848H125.671V37.2784C125.671 33.5109 124.174 32.1174 120.819 32.1174C119.632 32.1174 117.31 32.427 117.31 33.8721V35.2656H111.22V32.4787C111.22 27.5757 118.136 27.0596 120.871 27.0596C129.645 27.0596 132.225 31.6529 132.225 37.5364V47.3423C132.225 48.0649 132.638 48.4777 133.36 48.4777H135.425V54H129.541C127.116 54 126.187 52.6581 126.187 51.1098C126.187 50.4389 126.238 49.9744 126.238 49.9744H126.135C126.135 49.9744 124.122 54.6193 118.187 54.6193C113.491 54.6193 109.207 51.6776 109.207 46.4133ZM115.813 46.1037C115.813 47.8584 117.103 49.5099 119.787 49.5099C123.297 49.5099 125.774 45.794 125.774 42.5942V41.9749H124.638C121.232 41.9749 115.813 42.4394 115.813 46.1037ZM140.667 54V34.3882C140.667 33.6141 140.254 33.2528 139.532 33.2528H137.467V27.6789H143.505C145.828 27.6789 146.963 28.7627 146.963 30.6207V31.3948C146.963 31.9626 146.912 32.5303 146.912 32.5303H147.015C148.254 29.9498 151.402 27.0596 155.531 27.0596C159.505 27.0596 162.085 28.9176 163.22 32.4787H163.324C164.717 29.6401 168.123 27.0596 172.304 27.0596C177.774 27.0596 180.923 30.1562 180.923 37.0719V47.3423C180.923 48.0649 181.336 48.4777 182.058 48.4777H184.071V54H177.878C175.4 54 174.368 52.9678 174.368 50.4905V38.3106C174.368 35.3172 173.801 33.0464 170.756 33.0464C167.504 33.0464 165.182 35.7817 164.459 39.0847C164.149 40.1169 164.046 41.2007 164.046 42.4394V54H157.492V38.3106C157.492 35.472 157.079 33.0464 153.931 33.0464C150.628 33.0464 148.408 35.7817 147.583 39.1363C147.325 40.1685 147.17 41.2523 147.17 42.4394V54H140.667ZM187.031 35.5753C187.031 25.0984 194.721 17.0989 204.94 17.0989C210.101 17.0989 218.513 19.3181 218.513 24.7888V27.7821H215.107V25.7694C215.107 22.3631 209.223 20.5051 205.043 20.5051C196.992 20.5051 190.799 26.8016 190.799 35.5753C190.799 44.2457 196.94 51.2131 205.198 51.2131C212.681 51.2131 217.068 46.1037 217.068 46.1037L219.133 48.7358C219.133 48.7358 214.126 54.6193 205.146 54.6193C194.515 54.6193 187.031 46.1553 187.031 35.5753ZM225.343 50.8518V21.8986C225.343 21.1761 224.93 20.7632 224.208 20.7632H222.04V17.7182H225.704C227.924 17.7182 228.853 18.6472 228.853 20.8664V49.8196C228.853 50.5937 229.265 50.955 229.988 50.955H232.156V54H228.491C226.272 54 225.343 53.071 225.343 50.8518ZM235.62 46.9294C235.62 38.3106 247.025 38.0009 251.515 38.0009H252.96V37.6913C252.96 32.2722 250.999 30.3626 246.251 30.3626C244.961 30.3626 241.193 30.7239 241.193 32.6335V34.285H237.839V31.8077C237.839 28.195 244.032 27.4209 246.303 27.4209C254.509 27.4209 256.47 31.8077 256.47 37.3816V49.8196C256.47 50.5937 256.883 50.955 257.605 50.955H259.773V54H256.212C253.993 54 253.115 53.0194 253.115 50.9034C253.115 49.768 253.167 48.9938 253.167 48.9938H253.064C253.115 48.9938 250.948 54.6193 244.445 54.6193C240.11 54.6193 235.62 52.0904 235.62 46.9294ZM239.232 46.723C239.232 49.1487 241.142 51.6259 245.013 51.6259C249.967 51.6259 252.96 46.4649 252.96 41.9749V40.7879H251.464C247.387 40.7879 239.232 40.8911 239.232 46.723ZM262.369 50.0776L264.382 47.652C264.382 47.652 267.272 51.5743 272.381 51.5743C275.271 51.5743 277.852 50.1809 277.852 47.4455C277.852 41.7684 263.298 42.8006 263.298 34.4398C263.298 29.7433 267.323 27.4209 272.536 27.4209C275.168 27.4209 280.432 28.4531 280.432 32.1174V34.3366H277.129V33.098C277.129 31.1884 274.342 30.4659 272.639 30.4659C269.027 30.4659 266.859 31.7045 266.859 34.2334C266.859 40.0653 281.413 38.7235 281.413 47.3423C281.413 51.6776 277.491 54.6193 272.33 54.6193C265.569 54.6193 262.369 50.0776 262.369 50.0776ZM285.099 50.0776L287.112 47.652C287.112 47.652 290.002 51.5743 295.112 51.5743C298.002 51.5743 300.582 50.1809 300.582 47.4455C300.582 41.7684 286.028 42.8006 286.028 34.4398C286.028 29.7433 290.054 27.4209 295.267 27.4209C297.899 27.4209 303.163 28.4531 303.163 32.1174V34.3366H299.86V33.098C299.86 31.1884 297.073 30.4659 295.37 30.4659C291.757 30.4659 289.589 31.7045 289.589 34.2334C289.589 40.0653 304.143 38.7235 304.143 47.3423C304.143 51.6776 300.221 54.6193 295.06 54.6193C288.299 54.6193 285.099 50.0776 285.099 50.0776ZM308.398 41.0459C308.398 32.5303 314.23 27.4209 321.197 27.4209C328.371 27.4209 332.087 32.9431 332.087 39.3944C332.087 40.0137 331.983 41.1491 331.983 41.1491H312.062C312.165 47.7036 316.758 51.4711 322.126 51.4711C326.874 51.4711 329.919 48.2713 329.919 48.2713L331.622 50.9034C331.622 50.9034 327.855 54.6193 321.971 54.6193C314.281 54.6193 308.398 49.0454 308.398 41.0459ZM312.217 38.3622H328.474C328.267 32.9948 324.964 30.3626 321.145 30.3626C316.862 30.3626 313.094 33.1496 312.217 38.3622ZM336.105 50.0776L338.117 47.652C338.117 47.652 341.007 51.5743 346.117 51.5743C349.007 51.5743 351.587 50.1809 351.587 47.4455C351.587 41.7684 337.033 42.8006 337.033 34.4398C337.033 29.7433 341.059 27.4209 346.272 27.4209C348.904 27.4209 354.168 28.4531 354.168 32.1174V34.3366H350.865V33.098C350.865 31.1884 348.078 30.4659 346.375 30.4659C342.762 30.4659 340.595 31.7045 340.595 34.2334C340.595 40.0653 355.149 38.7235 355.149 47.3423C355.149 51.6776 351.226 54.6193 346.065 54.6193C339.304 54.6193 336.105 50.0776 336.105 50.0776Z" fill="white"/>
<path d="M360.388 50.2704C360.388 49.128 360.791 48.1704 361.597 47.3976C362.42 46.6248 363.487 46.2383 364.798 46.2383C366.125 46.2383 367.183 46.6248 367.973 47.3976C368.779 48.1704 369.182 49.128 369.182 50.2704C369.182 51.396 368.779 52.3452 367.973 53.118C367.183 53.8908 366.125 54.2772 364.798 54.2772C363.487 54.2772 362.42 53.8908 361.597 53.118C360.791 52.3452 360.388 51.396 360.388 50.2704ZM386.671 48.3804C387.511 48.3804 388.242 48.2208 388.864 47.9016C389.485 47.5824 389.964 47.1372 390.3 46.566C390.653 45.9779 390.829 45.2723 390.829 44.4491H398.238C398.238 46.4316 397.726 48.1788 396.701 49.6908C395.693 51.2028 394.332 52.3872 392.619 53.244C390.905 54.084 388.973 54.504 386.823 54.504C384.706 54.504 382.858 54.1596 381.279 53.4708C379.699 52.7652 378.381 51.7824 377.322 50.5224C376.264 49.2624 375.466 47.8008 374.928 46.1375C374.407 44.4575 374.147 42.6431 374.147 40.6943V40.0391C374.147 38.1071 374.407 36.3011 374.928 34.6211C375.466 32.9411 376.264 31.4711 377.322 30.211C378.381 28.951 379.691 27.9766 381.253 27.2878C382.833 26.5822 384.681 26.2294 386.797 26.2294C389.032 26.2294 391.006 26.6578 392.719 27.5146C394.45 28.3714 395.802 29.6062 396.777 31.2191C397.751 32.8151 398.238 34.7387 398.238 36.9899H390.829C390.829 36.1163 390.67 35.3351 390.351 34.6463C390.048 33.9407 389.578 33.3863 388.939 32.9831C388.318 32.5631 387.545 32.3531 386.621 32.3531C385.663 32.3531 384.874 32.5631 384.252 32.9831C383.647 33.3863 383.185 33.9491 382.866 34.6715C382.547 35.3939 382.329 36.2171 382.211 37.1411C382.093 38.0483 382.035 39.0143 382.035 40.0391V40.6943C382.035 41.7359 382.093 42.7271 382.211 43.6679C382.329 44.5919 382.547 45.4067 382.866 46.1123C383.202 46.818 383.673 47.3724 384.277 47.7756C384.882 48.1788 385.68 48.3804 386.671 48.3804ZM401.01 40.6439V40.1147C401.01 38.1155 401.296 36.2759 401.867 34.5959C402.438 32.8991 403.278 31.4291 404.387 30.1858C405.496 28.9426 406.857 27.9766 408.469 27.2878C410.082 26.5822 411.93 26.2294 414.014 26.2294C416.13 26.2294 417.995 26.5822 419.608 27.2878C421.238 27.9766 422.607 28.9426 423.716 30.1858C424.824 31.4291 425.664 32.8991 426.236 34.5959C426.807 36.2759 427.092 38.1155 427.092 40.1147V40.6439C427.092 42.6263 426.807 44.4659 426.236 46.1627C425.664 47.8428 424.824 49.3128 423.716 50.5728C422.607 51.816 421.246 52.782 419.633 53.4708C418.02 54.1596 416.164 54.504 414.064 54.504C411.981 54.504 410.124 54.1596 408.495 53.4708C406.865 52.782 405.496 51.816 404.387 50.5728C403.278 49.3128 402.438 47.8428 401.867 46.1627C401.296 44.4659 401.01 42.6263 401.01 40.6439ZM408.898 40.1147V40.6439C408.898 41.7191 408.982 42.7271 409.15 43.6679C409.335 44.6087 409.629 45.4319 410.032 46.1375C410.435 46.8432 410.964 47.3976 411.62 47.8008C412.292 48.1872 413.106 48.3804 414.064 48.3804C415.022 48.3804 415.828 48.1872 416.483 47.8008C417.138 47.3976 417.668 46.8432 418.071 46.1375C418.474 45.4319 418.76 44.6087 418.928 43.6679C419.112 42.7271 419.205 41.7191 419.205 40.6439V40.1147C419.205 39.0563 419.112 38.0651 418.928 37.1411C418.76 36.2003 418.474 35.3687 418.071 34.6463C417.668 33.9239 417.13 33.3611 416.458 32.9579C415.803 32.5547 414.988 32.3531 414.014 32.3531C413.073 32.3531 412.275 32.5547 411.62 32.9579C410.964 33.3611 410.435 33.9239 410.032 34.6463C409.629 35.3687 409.335 36.2003 409.15 37.1411C408.982 38.0651 408.898 39.0563 408.898 40.1147ZM439.113 32.4539V54H431.25V26.7334H438.634L439.113 32.4539ZM438.105 39.4091L436.114 39.4595C436.114 37.5443 436.341 35.7887 436.794 34.1927C437.265 32.5799 437.945 31.177 438.836 29.9842C439.726 28.7914 440.827 27.8674 442.137 27.2122C443.464 26.557 444.993 26.2294 446.723 26.2294C447.933 26.2294 449.033 26.4142 450.025 26.7838C451.016 27.1366 451.864 27.6994 452.57 28.4722C453.292 29.2282 453.847 30.2194 454.233 31.4459C454.619 32.6555 454.813 34.1087 454.813 35.8055V54H446.95V36.7631C446.95 35.5535 446.799 34.6379 446.497 34.0163C446.211 33.3779 445.791 32.9411 445.237 32.7059C444.682 32.4707 444.019 32.3531 443.246 32.3531C442.406 32.3531 441.658 32.5379 441.003 32.9075C440.365 33.2603 439.827 33.7559 439.39 34.3943C438.953 35.0327 438.626 35.7803 438.407 36.6371C438.206 37.4939 438.105 38.4179 438.105 39.4091ZM454.006 39.0059L451.511 39.2075C451.511 37.3595 451.73 35.6459 452.167 34.0667C452.603 32.4875 453.259 31.1182 454.132 29.959C455.006 28.783 456.089 27.8674 457.383 27.2122C458.693 26.557 460.214 26.2294 461.944 26.2294C463.221 26.2294 464.38 26.4142 465.422 26.7838C466.48 27.1534 467.387 27.7498 468.143 28.573C468.916 29.3962 469.513 30.4798 469.933 31.8239C470.353 33.1511 470.563 34.7807 470.563 36.7127V54H462.65V36.7127C462.65 35.5199 462.499 34.6127 462.196 33.9911C461.911 33.3695 461.491 32.9411 460.936 32.7059C460.399 32.4707 459.752 32.3531 458.996 32.3531C458.156 32.3531 457.425 32.5295 456.803 32.8823C456.182 33.2183 455.661 33.6887 455.241 34.2935C454.821 34.8815 454.51 35.5787 454.309 36.3851C454.107 37.1915 454.006 38.0651 454.006 39.0059Z" fill="#FFFB01"/>
<g filter="url(#filter0_i_2003_58)">
<path d="M80.6495 30.9097L72.1929 26.0274C73.9775 29.0472 74.9164 32.4917 74.9111 35.9994H74.8595L74.9111 36.0082L60.6528 38.4294V33.5851L71.5209 35.4355C71.2209 26.7374 64.0518 19.7554 55.2817 19.7554C46.3216 19.7554 39.0327 27.0452 39.0327 36.0043C39.0327 44.9634 46.3225 52.2484 55.2817 52.2484C59.5546 52.2518 63.6556 50.5662 66.6912 47.559L67.6963 48.567L80.6495 41.0901C84.5675 38.8277 84.5675 33.1702 80.6495 30.9097ZM49.5472 38.4294L41.3117 36.0082L49.5472 33.5851V38.4294ZM55.1687 39.0537C54.5657 39.0539 53.9762 38.8752 53.4747 38.5403C52.9733 38.2054 52.5824 37.7294 52.3516 37.1723C52.1207 36.6152 52.0603 36.0022 52.1779 35.4108C52.2954 34.8194 52.5858 34.2761 53.0122 33.8498C53.4386 33.4234 53.9818 33.133 54.5732 33.0154C55.1647 32.8978 55.7777 32.9583 56.3347 33.1891C56.8918 33.42 57.3679 33.8109 57.7028 34.3123C58.0376 34.8138 58.2163 35.4033 58.2161 36.0063C58.2171 36.4068 58.139 36.8037 57.9863 37.174C57.8335 37.5443 57.6091 37.8807 57.3259 38.1641C57.0428 38.4474 56.7064 38.672 56.3362 38.825C55.966 38.978 55.5693 39.0564 55.1687 39.0556V39.0537Z" fill="#FFFB01"/>
<path d="M49.5592 33.584L41.3237 36.0071H41.3247L49.5592 33.584Z" fill="#FFFB01"/>
<path d="M55.477 16.3709H55.2901C51.7438 16.3695 48.2634 17.3292 45.2189 19.1478C42.1745 20.9665 39.6798 23.5761 38 26.6993V16.4605C38 11.9376 42.8979 9.11319 46.816 11.3707L55.477 16.3709Z" fill="#FFFB01"/>
<path d="M55.479 55.6258L46.816 60.6269C42.8979 62.8894 38 60.0611 38 55.5362V45.2974C39.6796 48.4208 42.1743 51.0306 45.2188 52.8494C48.2632 54.6683 51.7437 55.6281 55.2901 55.6268L55.479 55.6258Z" fill="#FFFB01"/>
</g>
<defs>
<filter id="filter0_i_2003_58" x="38" y="10.5767" width="45.5879" height="54.8467" filterUnits="userSpaceOnUse" color-interpolation-filters="sRGB">
<feFlood flood-opacity="0" result="BackgroundImageFix"/>
<feBlend mode="normal" in="SourceGraphic" in2="BackgroundImageFix" result="shape"/>
<feColorMatrix in="SourceAlpha" type="matrix" values="0 0 0 0 0 0 0 0 0 0 0 0 0 0 0 0 0 0 127 0" result="hardAlpha"/>
<feOffset dy="4"/>
<feGaussianBlur stdDeviation="2"/>
<feComposite in2="hardAlpha" operator="arithmetic" k2="-1" k3="1"/>
<feColorMatrix type="matrix" values="0 0 0 0 0 0 0 0 0 0 0 0 0 0 0 0 0 0 0.25 0"/>
<feBlend mode="normal" in2="shape" result="effect1_innerShadow_2003_58"/>
</filter>
</defs>
</svg>
