<svg width="20" height="20" viewBox="0 0 20 20" fill="none" xmlns="http://www.w3.org/2000/svg">
<path d="M5.5 2C5.10218 2 4.72064 2.15804 4.43934 2.43934C4.15804 2.72064 4 3.10218 4 3.5V16.5C4 16.8978 4.15804 17.2794 4.43934 17.5607C4.72064 17.842 5.10218 18 5.5 18H10.257C10.0023 17.6915 9.782 17.3562 9.6 17H5.5C5.36739 17 5.24021 16.9473 5.14645 16.8536C5.05268 16.7598 5 16.6326 5 16.5V3.5C5 3.36739 5.05268 3.24021 5.14645 3.14645C5.24021 3.05268 5.36739 3 5.5 3H12.5C12.6326 3 12.7598 3.05268 12.8536 3.14645C12.9473 3.24021 13 3.36739 13 3.5V9.207C13.3269 9.11447 13.6617 9.05254 14 9.022V3.5C14 3.10218 13.842 2.72064 13.5607 2.43934C13.2794 2.15804 12.8978 2 12.5 2H5.5ZM9 14.5C9 14.332 9.008 14.165 9.022 14H7.5C7.36739 14 7.24021 14.0527 7.14645 14.1464C7.05268 14.2402 7 14.3674 7 14.5C7 14.6326 7.05268 14.7598 7.14645 14.8536C7.24021 14.9473 7.36739 15 7.5 15H9.022C9.00718 14.8337 8.99984 14.6669 9 14.5ZM14.5 10C15.6935 10 16.8381 10.4741 17.682 11.318C18.5259 12.1619 19 13.3065 19 14.5C19 15.6935 18.5259 16.8381 17.682 17.682C16.8381 18.5259 15.6935 19 14.5 19C13.3065 19 12.1619 18.5259 11.318 17.682C10.4741 16.8381 10 15.6935 10 14.5C10 13.3065 10.4741 12.1619 11.318 11.318C12.1619 10.4741 13.3065 10 14.5 10ZM16.853 14.854L16.856 14.851C16.9476 14.7583 16.9993 14.6334 17 14.503V14.497C16.9992 14.3657 16.9467 14.24 16.854 14.147L14.854 12.147C14.7602 12.0531 14.633 12.0003 14.5004 12.0002C14.3677 12.0001 14.2404 12.0527 14.1465 12.1465C14.0526 12.2403 13.9998 12.3675 13.9997 12.5001C13.9996 12.6328 14.0522 12.7601 14.146 12.854L15.293 14H12.5C12.3674 14 12.2402 14.0527 12.1464 14.1464C12.0527 14.2402 12 14.3674 12 14.5C12 14.6326 12.0527 14.7598 12.1464 14.8536C12.2402 14.9473 12.3674 15 12.5 15H15.293L14.146 16.146C14.0521 16.2399 13.9994 16.3672 13.9994 16.5C13.9994 16.6328 14.0521 16.7601 14.146 16.854C14.2399 16.9479 14.3672 17.0006 14.5 17.0006C14.6328 17.0006 14.7601 16.9479 14.854 16.854L16.853 14.854Z" fill="black"/>
</svg>
